<svg viewBox="0 0 39 39" width="37.975" height="37.975" xmlns="http://www.w3.org/2000/svg" xmlns:serif="http://www.serif.com/" fill-rule="evenodd" clip-rule="evenodd" stroke-linejoin="round" stroke-miterlimit="1.414"><g serif:id="STORE ICON"><path d="M38.652 8.105A7.598 7.598 0 0 0 31.057.51H8.272A7.599 7.599 0 0 0 .677 8.105V30.89a7.6 7.6 0 0 0 7.595 7.595h22.785a7.599 7.599 0 0 0 7.595-7.595V8.105z" fill="#48355b"/><path d="M24.656 26.856h-9.983V11.934h9.983v14.922zm-4.992 3.283a1.32 1.32 0 1 1 0-2.638 1.32 1.32 0 0 1 0 2.638zM24.23 7.4h-9.131a1.982 1.982 0 0 0-1.982 1.982v20.23c0 1.095.887 1.982 1.982 1.982h9.131a1.982 1.982 0 0 0 1.983-1.982V9.382A1.982 1.982 0 0 0 24.23 7.4z" fill="#fff" fill-rule="nonzero"/></g></svg>
