<svg viewBox="0 0 43 43" width="42" height="42" xmlns="http://www.w3.org/2000/svg" fill-rule="evenodd" clip-rule="evenodd" stroke-linejoin="round" stroke-miterlimit="1.414"><path d="M28.453 31.108c-.544 0-1.036-.22-1.392-.576l-5.827-5.827-5.827 5.827a1.968 1.968 0 1 1-2.784-2.785l5.827-5.826-5.827-5.827a1.969 1.969 0 0 1 2.784-2.784l5.827 5.827 5.827-5.827a1.97 1.97 0 0 1 2.784 2.784l-5.826 5.827 5.826 5.826a1.969 1.969 0 0 1-1.392 3.361m-7.219-26.25c-9.423 0-17.062 7.639-17.062 17.063 0 9.423 7.639 17.062 17.062 17.062 9.423 0 17.063-7.639 17.063-17.062 0-9.424-7.64-17.063-17.063-17.063m0 38.063c-11.598 0-21-9.402-21-21s9.402-21 21-21 21 9.402 21 21-9.402 21-21 21" fill="#c8d2d7"/></svg>
