<svg viewBox="0 0 17 28" width="17" height="28" xmlns="http://www.w3.org/2000/svg" fill-rule="evenodd" clip-rule="evenodd" stroke-linejoin="round" stroke-miterlimit="1.414"><path d="M15.975 4.872L6.806 14.04l9.197 9.199-.002.001c.488.503.791 1.186.791 1.941a2.789 2.789 0 0 1-2.789 2.789 2.773 2.773 0 0 1-1.94-.791l-.003.003L.905 16.027l.003-.003a2.774 2.774 0 0 1-.849-1.997c0-.846.384-1.595.979-2.106L12.03.928l.004.004a2.772 2.772 0 0 1 1.998-.849 2.789 2.789 0 0 1 2.789 2.789c0 .784-.327 1.492-.849 1.997l.003.003z" fill="#48355b"/></svg>
