<svg viewBox="0 0 37 42" xmlns="http://www.w3.org/2000/svg" fill-rule="evenodd" clip-rule="evenodd" stroke-linejoin="round" stroke-miterlimit="1.414"><path d="M18.751 9.815c-.334-2.366.917-4.824 2.346-6.368C22.694 1.707 25.386.414 27.61.331c.285 2.41-.758 4.829-2.301 6.571-1.545 1.738-4.077 3.093-6.558 2.913m12.125 12.383c.06 6.224 5.866 8.294 5.933 8.323-.052.142-.929 2.952-3.063 5.853-1.843 2.508-3.752 5.003-6.764 5.054-2.962.052-3.913-1.634-7.299-1.634-3.384 0-4.442 1.583-7.243 1.686-2.905.103-5.121-2.707-6.978-5.205-3.8-5.11-6.701-14.44-2.802-20.736 1.932-3.129 5.392-5.109 9.146-5.161 2.855-.047 5.551 1.792 7.294 1.792 1.747 0 5.023-2.211 8.466-1.887 1.44.056 5.487.541 8.084 4.076-.207.126-4.83 2.626-4.774 7.839" fill="#cfdde4"/></svg>