<svg viewBox="0 0 37 37" xmlns="http://www.w3.org/2000/svg" fill-rule="evenodd" clip-rule="evenodd" stroke-linejoin="round" stroke-miterlimit="1.414"><path d="M27.548 31.657c-.156-.929-.975-5.44-2.992-10.981 4.962-.794 9.262.568 9.58.671a15.379 15.379 0 0 1-6.588 10.31m-8.589 2.622a15.308 15.308 0 0 1-9.793-3.523c.203.164.344.27.344.27s2.947-6.428 12.064-9.603c.034-.013.068-.023.102-.033 2.163 5.621 3.056 10.328 3.283 11.672a15.313 15.313 0 0 1-6 1.217M3.587 18.905c0-.163.006-.324.012-.484.271.005 7.867.177 15.781-2.191.441.862.862 1.738 1.248 2.613-.204.057-.405.118-.606.183-8.296 2.681-12.503 10.146-12.503 10.146s.005.004.005.007a15.32 15.32 0 0 1-3.937-10.274m8.812-13.902c.205.275 3.048 4.129 5.708 8.858-7.38 1.961-13.786 1.884-14.192 1.877a15.398 15.398 0 0 1 8.484-10.735m2.877-1.022l-.002.003-.047.01c.016-.004.033-.007.049-.013M29.111 7.37c-.038.06-2.227 3.392-8.03 5.566-2.627-4.828-5.514-8.663-5.746-8.968a15.4 15.4 0 0 1 3.624-.434A15.31 15.31 0 0 1 29.111 7.37m5.214 11.383c-.222-.048-5.424-1.167-10.707-.503a47.247 47.247 0 0 0-1.353-3.024c6.071-2.477 8.536-6.041 8.565-6.084a15.3 15.3 0 0 1 3.495 9.611m2.266-3.47a17.908 17.908 0 0 0-2.709-6.441 18.126 18.126 0 0 0-4.859-4.86 18.055 18.055 0 0 0-3.058-1.661A18.005 18.005 0 0 0 18.959.906a18.019 18.019 0 0 0-7.008 1.415A18.062 18.062 0 0 0 2.374 11.9a17.91 17.91 0 0 0-1.416 7.005c0 1.222.123 2.442.366 3.627a17.878 17.878 0 0 0 2.71 6.441 18.107 18.107 0 0 0 4.858 4.858 17.951 17.951 0 0 0 10.067 3.076 18.008 18.008 0 0 0 7.006-1.416 17.98 17.98 0 0 0 3.058-1.66 18.126 18.126 0 0 0 2.663-2.196 18.17 18.17 0 0 0 2.196-2.662 17.95 17.95 0 0 0 3.076-10.068c0-1.218-.123-2.438-.367-3.622" fill="#cfdde4"/></svg>