<svg viewBox="0 0 37 30" xmlns="http://www.w3.org/2000/svg" fill-rule="evenodd" clip-rule="evenodd" stroke-linejoin="round" stroke-miterlimit="1.414"><path d="M24.674.302c2.86-.051 4.382.991 5.836 2.317 1.235-.106 2.839-.796 3.783-1.276l.919-.502c-.54 1.458-1.271 2.6-2.396 3.466-.249.193-.497.452-.81.575V4.9c1.602-.017 2.923-.74 4.179-1.132v.018c-.659 1.049-1.552 2.112-2.504 2.874l-1.153.916c.021 1.697-.025 3.316-.342 4.741-1.844 8.289-6.73 13.916-14.466 16.326-2.777.866-7.266 1.221-10.448.431-1.578-.391-3.004-.833-4.342-1.419a17.163 17.163 0 0 1-2.089-1.077l-.648-.395c.717.021 1.557.219 2.359.09.726-.118 1.438-.087 2.108-.234 1.67-.366 3.153-.851 4.431-1.598.62-.363 1.56-.789 2-1.311-.829.014-1.581-.178-2.198-.396-2.389-.843-3.779-2.394-4.683-4.723.724.079 2.808.268 3.296-.144-.911-.05-1.787-.578-2.414-.97-1.921-1.202-3.488-3.219-3.477-6.322l.757.359c.482.204.973.313 1.549.432.244.05.73.193 1.009.089h-.036c-.372-.432-.977-.721-1.351-1.185-1.233-1.532-2.388-3.891-1.657-6.7.185-.712.479-1.341.792-1.921l.036.018c.144.301.464.521.667.773.63.78 1.406 1.481 2.198 2.101 2.696 2.109 5.125 3.404 9.025 4.364.989.243 2.133.429 3.314.431-.331-.967-.225-2.531.036-3.466.658-2.353 2.085-4.049 4.18-4.957A8.915 8.915 0 0 1 23.773.41l.901-.108" fill="#cfdde4"/></svg>