<svg viewBox="0 0 37 37" xmlns="http://www.w3.org/2000/svg" fill-rule="evenodd" clip-rule="evenodd" stroke-linejoin="round" stroke-miterlimit="1.414"><path d="M18.008.907c-9.941 0-18 8.059-18 18 0 7.409 4.478 13.772 10.873 16.535-.046-1.254-.001-2.751.317-4.107.349-1.465 2.327-9.844 2.327-9.844s-.579-1.155-.579-2.86c0-2.674 1.554-4.676 3.484-4.676 1.644 0 2.438 1.237 2.438 2.715 0 1.651-1.054 4.121-1.597 6.408-.451 1.916.965 3.481 2.854 3.481 3.42 0 5.724-4.396 5.724-9.607 0-3.957-2.663-6.922-7.515-6.922-5.478 0-8.895 4.087-8.895 8.653 0 1.573.465 2.685 1.194 3.543.333.394.379.554.257 1.008-.088.331-.283 1.131-.366 1.45-.12.458-.493.618-.905.45-2.523-1.029-3.701-3.793-3.701-6.9 0-5.132 4.329-11.286 12.912-11.286 6.899 0 11.437 4.992 11.437 10.347 0 7.091-3.94 12.383-9.747 12.383-1.951 0-3.787-1.055-4.412-2.25 0 0-1.052 4.158-1.272 4.964-.379 1.373-1.109 2.744-1.786 3.824 1.573.449 3.236.691 4.958.691 9.94 0 18-8.06 18-18 0-9.941-8.06-18-18-18" fill="#cfdde4" fill-rule="nonzero"/></svg>