<svg viewBox="0 0 37 37" xmlns="http://www.w3.org/2000/svg" fill-rule="evenodd" clip-rule="evenodd" stroke-linejoin="round" stroke-miterlimit="1.414"><path d="M15.466 7.853c-1.642 0-3.235.263-4.309.787-1.074.525-1.848 1.453-2.249 2.287-.4.834-.599 1.85-.599 3.543v1.608H5.617v4.215h2.692v14h5.754v-14h3.588l.994-4.215h-4.582v-1.512c0-1.024.185-1.716.557-2.077.372-.36 1.11-.576 1.967-.576.87 0 1.568.406 2.447.919l1.048-3.965c-1.614-.455-2.932-1.014-4.616-1.014m17.876 29.054H2.908c-1.531 0-2.772-1.127-2.772-2.659V3.681A2.773 2.773 0 0 1 2.908.907h30.434a2.773 2.773 0 0 1 2.772 2.774v30.567c0 1.532-1.241 2.659-2.772 2.659" fill="#cfdde4"/></svg>