<svg viewBox="0 0 37 37" xmlns="http://www.w3.org/2000/svg" fill-rule="evenodd" clip-rule="evenodd" stroke-linejoin="round" stroke-miterlimit="1.414"><path d="M36.71 27.907a9 9 0 0 1-9 9 8.958 8.958 0 0 1-6.224-2.509 15.87 15.87 0 0 1-2.776.259c-8.699 0-15.75-7.052-15.75-15.75 0-.949.098-1.873.259-2.776A8.962 8.962 0 0 1 .71 9.907a9 9 0 0 1 9-9 8.96 8.96 0 0 1 6.224 2.509 15.774 15.774 0 0 1 2.776-.259c8.698 0 15.75 7.051 15.75 15.75 0 .949-.099 1.873-.259 2.775a8.967 8.967 0 0 1 2.509 6.225m-11.064-2.696c-.622.847-1.541 1.519-2.733 1.996-1.178.471-2.592.711-4.2.711-1.931 0-3.551-.327-4.814-.973a6.211 6.211 0 0 1-2.214-1.891c-.571-.792-.86-1.579-.86-2.34 0-.473.188-.884.56-1.22.368-.334.84-.503 1.403-.503.463 0 .862.132 1.185.395.309.254.574.628.788 1.11.239.527.498.969.772 1.318.265.337.643.619 1.128.84.487.222 1.145.335 1.953.335 1.111 0 2.022-.229 2.708-.68.67-.439.995-.968.995-1.615 0-.511-.17-.912-.519-1.228-.367-.329-.849-.584-1.435-.762a29.737 29.737 0 0 0-2.467-.589c-1.395-.286-2.58-.629-3.523-1.014-.965-.395-1.741-.943-2.31-1.627-.577-.697-.87-1.568-.87-2.595a4.1 4.1 0 0 1 .913-2.619c.601-.756 1.48-1.343 2.61-1.745 1.116-.397 2.443-.599 3.945-.599 1.2 0 2.256.135 3.137.398.887.265 1.633.624 2.221 1.066.591.445 1.031.92 1.308 1.415.277.498.419.995.419 1.476 0 .463-.185.883-.552 1.25-.367.368-.832.555-1.38.555-.497 0-.888-.118-1.158-.347-.252-.215-.513-.549-.802-1.029-.336-.613-.742-1.097-1.207-1.438-.452-.332-1.208-.498-2.245-.498-.963 0-1.747.186-2.329.554-.561.354-.834.759-.834 1.24 0 .295.088.542.269.753.191.227.461.422.801.587.353.171.718.307 1.082.403.373.101 1.001.248 1.861.44 1.087.225 2.088.477 2.972.749.895.277 1.668.616 2.3 1.012a4.472 4.472 0 0 1 1.515 1.541c.364.622.547 1.388.547 2.279a4.79 4.79 0 0 1-.94 2.889" fill="#cfdde4"/></svg>