<svg viewBox="0 0 37 40" xmlns="http://www.w3.org/2000/svg" fill-rule="evenodd" clip-rule="evenodd" stroke-linejoin="round" stroke-miterlimit="1.414"><g fill="#cfdde4" fill-rule="nonzero"><path d="M6.731.835A3.86 3.86 0 0 0 3.745.319l17.763 17.763 5.757-5.757L6.731.835zM1.54 1.763a3.86 3.86 0 0 0-.78 2.323v31.641c0 .856.285 1.664.78 2.323l18.144-18.144L1.54 1.763zM34.779 16.529l-5.174-2.895-6.273 6.272 6.273 6.273 5.175-2.895a3.826 3.826 0 0 0 1.98-3.378c0-1.42-.74-2.682-1.981-3.377zM21.508 21.731L3.746 39.493c.291.068.587.105.884.105.732 0 1.462-.208 2.101-.62l20.534-11.49-5.757-5.757z"/></g></svg>