<svg viewBox="0 0 37 37" xmlns="http://www.w3.org/2000/svg" fill-rule="evenodd" clip-rule="evenodd" stroke-linejoin="round" stroke-miterlimit="1.414"><path d="M32.008 15.982h-3.317c.256.932.393 1.913.393 2.925 0 6.088-4.935 11.023-11.023 11.023S7.038 24.995 7.038 18.907c0-1.012.137-1.993.393-2.925H4.114v15.072a1.8 1.8 0 0 0 1.799 1.8h24.296a1.8 1.8 0 0 0 1.799-1.8V15.982zm0-9.223a1.8 1.8 0 0 0-1.799-1.799h-3.6a1.8 1.8 0 0 0-1.799 1.799v3.6a1.8 1.8 0 0 0 1.799 1.799h3.6a1.8 1.8 0 0 0 1.799-1.799v-3.6zm-13.947 5.174a6.97 6.97 0 0 0-6.325 4.049h-.006l-.03.078a6.353 6.353 0 0 0-.181.452c-.027.072-.056.144-.081.218a7.455 7.455 0 0 0-.134.477c-.018.076-.041.149-.057.226-.037.17-.062.343-.086.517-.01.071-.025.139-.033.211a6.973 6.973 0 0 0 6.933 7.719 6.973 6.973 0 0 0 6.933-7.719c-.008-.072-.023-.14-.033-.211a6.795 6.795 0 0 0-.086-.517c-.016-.077-.039-.15-.057-.226a7.455 7.455 0 0 0-.134-.477c-.025-.074-.054-.146-.081-.218a6.345 6.345 0 0 0-.18-.452c-.012-.026-.02-.052-.031-.078h-.006a6.97 6.97 0 0 0-6.325-4.049m13.497 24.97H4.564a4.499 4.499 0 0 1-4.499-4.499V5.41A4.499 4.499 0 0 1 4.564.911h26.994a4.499 4.499 0 0 1 4.499 4.499v26.994a4.499 4.499 0 0 1-4.499 4.499" fill="#cfdde4"/></svg>