<svg viewBox="0 0 123 123" width="122" height="122" xmlns="http://www.w3.org/2000/svg" xmlns:serif="http://www.serif.com/" fill-rule="evenodd" clip-rule="evenodd" stroke-linejoin="round" stroke-miterlimit="1.414"><g serif:id="SAMPLE ICON"><path d="M122.674 30.88c0-16.869-13.695-30.564-30.564-30.564H30.982C14.113.316.418 14.011.418 30.88v61.128c0 16.869 13.695 30.564 30.564 30.564H92.11c16.869 0 30.564-13.695 30.564-30.564V30.88z" fill="#b0bec5"/><path d="M46.459 55.334l15.649 3.777-.001.008c.87.211 1.556.891 1.765 1.763l.007-.001 3.777 15.65L80.61 42.38 46.459 55.334zM86.975 39.09l.014.005-17.6 46.4-.006-.002a2.394 2.394 0 0 1-2.237 1.551 2.395 2.395 0 0 1-2.327-1.838l-.007.001-5.256-21.774-21.774-5.256.001-.006a2.396 2.396 0 0 1-1.837-2.327c0-1.026.645-1.894 1.55-2.238l-.001-.006L83.894 36l.002.006c.265-.1.549-.162.849-.162a2.4 2.4 0 0 1 2.401 2.4c0 .301-.07.581-.171.846" fill="#fff"/></g></svg>
