<svg viewBox="0 0 123 124" width="122" height="122" xmlns="http://www.w3.org/2000/svg" xmlns:serif="http://www.serif.com/" fill-rule="evenodd" clip-rule="evenodd" stroke-linejoin="round" stroke-miterlimit="1.414"><g serif:id="SAMPLE ICON"><path d="M122.674 31.383c0-16.869-13.695-30.565-30.564-30.565H30.982C14.113.818.418 14.514.418 31.383v61.128c0 16.869 13.695 30.564 30.564 30.564H92.11c16.869 0 30.564-13.695 30.564-30.564V31.383z" fill="#b0bec5"/><path d="M75.599 73.189c-6.193 6.193-15.885 6.719-22.696 1.617l-9.977 9.977a2.982 2.982 0 0 1-4.216-4.216l9.977-9.977c-5.102-6.811-4.576-16.503 1.617-22.696l5.972-5.973 4.216 4.216 7.027-7.026a2.98 2.98 0 1 1 4.215 4.216l-7.026 7.026 8.432 8.432 7.026-7.027a2.982 2.982 0 0 1 4.216 4.216l-7.026 7.027 4.215 4.215-5.972 5.973z" fill="#fff"/></g></svg>
