<svg viewBox="0 0 123 124" width="122" height="122" xmlns="http://www.w3.org/2000/svg" xmlns:serif="http://www.serif.com/" fill-rule="evenodd" clip-rule="evenodd" stroke-linejoin="round" stroke-miterlimit="1.414"><g serif:id="SAMPLE ICON"><path d="M122.674 31.383c0-16.869-13.695-30.565-30.564-30.565H30.982C14.113.818.418 14.514.418 31.383v61.128c0 16.869 13.695 30.564 30.564 30.564H92.11c16.869 0 30.564-13.695 30.564-30.564V31.383z" fill="#b0bec5"/><path d="M50.468 73.16a2.399 2.399 0 0 1 2.254-1.587H70.37a2.4 2.4 0 0 1 2.273 1.648l.01-.003 2.393 7.179H47.827l2.633-7.241.008.004zm23.913-17.631a3.209 3.209 0 1 0-.001 6.417 3.209 3.209 0 0 0 .001-6.417m-6.418 0H55.128v6.418h12.835v-6.418zm-19.252 0a3.209 3.209 0 1 0 0 6.418 3.209 3.209 0 0 0 0-6.418m36.098 24.868h-6.713l-3.888-9.718-.003.001a2.403 2.403 0 0 0-2.231-1.514H51.117a2.404 2.404 0 0 0-2.231 1.514l-.004-.001-3.886 9.718h-6.714a2.407 2.407 0 0 1-2.406-2.407V45.903a2.407 2.407 0 0 1 2.406-2.407h46.527a2.407 2.407 0 0 1 2.407 2.407V77.99a2.407 2.407 0 0 1-2.407 2.407" fill="#fff"/></g></svg>
