<svg viewBox="0 0 123 124" width="122" height="122" xmlns="http://www.w3.org/2000/svg" xmlns:serif="http://www.serif.com/" fill-rule="evenodd" clip-rule="evenodd" stroke-linejoin="round" stroke-miterlimit="1.414"><g serif:id="SAMPLE ICON"><path d="M122.674 31.383c0-16.869-13.695-30.565-30.564-30.565H30.982C14.113.818.418 14.514.418 31.383v61.128c0 16.869 13.695 30.564 30.564 30.564H92.11c16.869 0 30.564-13.695 30.564-30.564V31.383z" fill="#b0bec5"/><path d="M76.546 73.947a2.99 2.99 0 0 1 2.121.879l6 6a3 3 0 1 1-4.242 4.242l-6-6a3 3 0 0 1 2.121-5.121m-33-12a3 3 0 0 1-3 3h-8a3 3 0 1 1 0-6h8a3 3 0 0 1 3 3m3-12a2.99 2.99 0 0 1-2.121-.879l-6-6a3 3 0 1 1 4.242-4.242l6 6a3 3 0 0 1-2.121 5.121m2.121 29.121l-6 6a3 3 0 1 1-4.242-4.242l6-6a3 3 0 1 1 4.242 4.242m12.879-35.121a3 3 0 0 1-3-3v-8a3 3 0 1 1 6 0v8a3 3 0 0 1-3 3m0 50a3 3 0 0 1-3-3v-8a3 3 0 1 1 6 0v8a3 3 0 0 1-3 3m23.121-50.879l-6 6a3 3 0 1 1-4.242-4.242l6-6a3 3 0 1 1 4.242 4.242m5.879 21.879h-8a3 3 0 1 1 0-6h8a3 3 0 1 1 0 6" fill="#fff"/></g></svg>
