<svg viewBox="0 0 123 124" width="122" height="122" xmlns="http://www.w3.org/2000/svg" xmlns:serif="http://www.serif.com/" fill-rule="evenodd" clip-rule="evenodd" stroke-linejoin="round" stroke-miterlimit="1.414"><g serif:id="SAMPLE ICON"><path d="M122.674 31.358c0-16.869-13.695-30.564-30.564-30.564H30.982C14.113.794.418 14.489.418 31.358v61.128c0 16.869 13.695 30.564 30.564 30.564H92.11c16.869 0 30.564-13.695 30.564-30.564V31.358z" fill="#b0bec5"/><path d="M80.819 75.468c0 2.641-3.221 4.781-7.194 4.781s-7.193-2.14-7.193-4.781c0-2.64 3.22-4.781 7.193-4.781 1.179 0 2.288.192 3.27.526V51.33L54.66 57.239V82.64c0 2.641-3.221 4.781-7.193 4.781-3.973 0-7.194-2.14-7.194-4.781 0-2.641 3.221-4.781 7.194-4.781 1.178 0 2.288.192 3.269.526v-32.4c0-1.847 1.962-2.391 1.962-2.391l26.159-7.171c1.083 0 1.962 1.07 1.962 2.39v36.655z" fill="#fff"/></g></svg>
