<svg viewBox="0 0 123 123" width="122" height="122" xmlns="http://www.w3.org/2000/svg" xmlns:serif="http://www.serif.com/" fill-rule="evenodd" clip-rule="evenodd" stroke-linejoin="round" stroke-miterlimit="1.414"><g serif:id="SAMPLE ICON"><path d="M122.674 30.88c0-16.869-13.695-30.564-30.564-30.564H30.982C14.113.316.418 14.011.418 30.88v61.128c0 16.869 13.695 30.564 30.564 30.564H92.11c16.869 0 30.564-13.695 30.564-30.564V30.88z" fill="#b0bec5"/><path d="M61.546 67.444a6 6 0 1 1 0-12 6 6 0 0 1 0 12m0-19c-7.18 0-13 5.82-13 13s5.82 13 13 13 13-5.82 13-13-5.82-13-13-13m0 32c-10.493 0-19-8.507-19-19s8.507-19 19-19 19 8.507 19 19-8.507 19-19 19m0-45c-14.359 0-26 11.641-26 26 0 14.36 11.641 26 26 26 14.36 0 26-11.64 26-26 0-14.359-11.64-26-26-26m0 58c-17.673 0-32-14.327-32-32 0-17.673 14.327-32 32-32 17.673 0 32 14.327 32 32 0 17.673-14.327 32-32 32" fill="#fff"/></g></svg>
