<svg viewBox="0 0 123 124" width="122" height="122" xmlns="http://www.w3.org/2000/svg" xmlns:serif="http://www.serif.com/" fill-rule="evenodd" clip-rule="evenodd" stroke-linejoin="round" stroke-miterlimit="1.414"><g serif:id="SAMPLE ICON"><path d="M122.674 31.358c0-16.869-13.695-30.564-30.564-30.564H30.982C14.113.794.418 14.489.418 31.358v61.128c0 16.869 13.695 30.564 30.564 30.564H92.11c16.869 0 30.564-13.695 30.564-30.564V31.358z" fill="#b0bec5"/><path d="M68.246 49.266a6.7 6.7 0 0 0-13.4 0h13.4zM42.19 51.499c0-1.233 1-2.233 2.233-2.233h5.956c0-6.167 5-11.167 11.167-11.167s11.167 5 11.167 11.167h5.956c1.233 0 2.233 1 2.233 2.233v27.546H42.19V51.499zm36.479 34.246H44.423c-1.233 0-2.233-1-2.233-2.234v-2.233h38.712v2.233c0 1.234-1 2.234-2.233 2.234" fill="#fff"/></g></svg>
