<svg viewBox="0 0 123 124" width="122" height="122" xmlns="http://www.w3.org/2000/svg" xmlns:serif="http://www.serif.com/" fill-rule="evenodd" clip-rule="evenodd" stroke-linejoin="round" stroke-miterlimit="1.414"><g serif:id="SAMPLE ICON"><path d="M122.674 31.358c0-16.869-13.695-30.564-30.564-30.564H30.982C14.113.794.418 14.489.418 31.358v61.128c0 16.869 13.695 30.564 30.564 30.564H92.11c16.869 0 30.564-13.695 30.564-30.564V31.358z" fill="#b0bec5"/><path d="M61.546 66.205a4.283 4.283 0 0 0-4.283 4.283c0 1.582.866 2.947 2.141 3.69v4.163a2.142 2.142 0 1 0 4.283 0v-4.163c1.275-.743 2.142-2.108 2.142-3.69a4.283 4.283 0 0 0-4.283-4.283m16.419 18.561H45.127a2.142 2.142 0 0 1-2.142-2.142v-18.56c0-1.183.959-2.142 2.142-2.142h3.569v-9.994c0-7.097 5.753-12.85 12.85-12.85 7.097 0 12.85 5.753 12.85 12.85a2.142 2.142 0 0 1-4.284 0 8.567 8.567 0 0 0-17.133 0v9.994h24.986c1.183 0 2.142.959 2.142 2.142v18.56a2.142 2.142 0 0 1-2.142 2.142" fill="#fff"/></g></svg>
