<svg viewBox="0 0 112 15" width="110" height="14.7" xmlns="http://www.w3.org/2000/svg" fill-rule="evenodd" clip-rule="evenodd" stroke-linejoin="round" stroke-miterlimit="1.414"><path d="M2.743.467c.261 8.417 10.368 15.131 18.504 10.787 3.366-1.797 5.808-5.178 6.477-8.979l.271-1.63h1.721c1.117 6.73 6.675 12.488 13.452 12.068 5.574-.346 10.624-4.759 11.623-10.438l.271-1.63h1.72c1.118 6.73 6.676 12.488 13.453 12.068 5.574-.347 10.623-4.759 11.623-10.438l.271-1.63h1.72c1.126 6.78 6.687 12.572 13.608 12.057 6.241-.464 11.608-6.119 11.648-12.555l2.25.014c-.053 8.585-8.646 16.129-17.382 14.605-4.703-.82-8.875-4.027-10.917-8.394 0 0 .084-.466-.195.131-3.215 6.703-11.83 10.159-18.746 7.489-3.555-1.372-6.51-4.164-8.126-7.62 0 0 .084-.466-.195.131-4.701 9.803-21.256 11.877-26.872-.131 0 0 .084-.466-.195.131-3.385 7.059-12.722 10.487-19.906 6.983C3.863 11.068.524 5.752.489.161l2.25-.014.004.32z" fill="#48355b" fill-rule="nonzero"/></svg>
