<svg xmlns="http://www.w3.org/2000/svg" viewBox="0 0 423 539" width="408" height="521" fill-rule="evenodd" clip-rule="evenodd" stroke-linejoin="round" stroke-miterlimit="1.414"><path d="M117.215 288.068c-76.823 10.77-138.347 71.03-96.531 181.563 23.795-24.18 55.845-43.79 103.023-55.019z" fill="#673ab7"/><clipPath id="a"><path d="M114.3 288.656C35.1 299.76-28.328 361.884 14.782 475.837c24.532-24.928 57.573-45.144 106.211-56.721l-6.693-130.46z"/></clipPath><g clip-path="url(#a)" transform="matrix(.96999 0 0 .96999 6.345 8.075)"><path d="M122.498 336.918c-64.662 6.065-127.266 48.976-107.3 141.679 61.78-23.161 109.829-55.92 116.993-108.107z" fill="#4a148c"/></g><path d="M305.62 288.068c76.823 10.77 138.348 71.03 96.532 181.563-23.796-24.18-55.846-43.79-103.024-55.019z" fill="#673ab7"/><clipPath id="b"><path d="M308.535 288.656c79.2 11.104 142.629 73.228 99.519 187.181-24.533-24.928-57.574-45.144-106.212-56.721l6.693-130.46z"/></clipPath><g clip-path="url(#b)" transform="matrix(.96999 0 0 .96999 6.345 8.075)"><path d="M300.338 336.918c64.661 6.065 127.266 48.976 107.299 141.679-61.78-23.161-109.829-55.92-116.993-108.107z" fill="#4a148c"/></g><path d="M211.048 8.095c-66.62 82.195-110.526 220.723-92.528 389.962 61.122 24.659 125.272 22.158 191.614 0-.648-98.385-1.898-197.502-39.007-289.016-14.156-34.909-33.53-68.713-60.079-100.946z" fill="#fff"/><clipPath id="c"><path d="M211.037.02c-68.681 84.738-113.946 227.553-95.391 402.028 63.013 25.422 129.148 22.844 197.543 0-.669-101.429-1.957-203.613-40.214-297.958C258.381 68.101 238.408 33.251 211.037.02z"/></clipPath><g clip-path="url(#c)" transform="matrix(.96999 0 0 .96999 6.345 8.075)"><path d="M140.078 105.569c42.075 2.903 99.243 3.368 138.516 0V-21.23H140.329z" fill="#ff6d00"/><path d="M273.918 105.89l-35.27.8.145.864c16.5 98.446 11.572 200.654-1.713 303.937l218.374-98.313-154.82-198.493z" fill="#cfd8dc"/><path d="M211.037.02c12.73 34.803 27.824 107.321 27.767 107.596 11.82-.218 23.48-.75 34.993-1.614l10.93-11.566z" fill="#cf5c00"/></g><path d="M226.332 159.217c27.6 0 52.98 20.427 50.008 50.008-2.76 27.463-22.408 46.87-50.008 46.87-27.601 0-46.656-19.474-50.01-46.87-4.333-35.401 22.409-50.008 50.01-50.008z" fill="#cfd8dc"/><path d="M213.135 146.742c27.6 0 52.98 20.427 50.009 50.008-2.76 27.463-22.41 46.87-50.01 46.87-27.6 0-46.654-19.473-50.008-46.87-4.334-35.401 22.409-50.008 50.009-50.008z" fill="#4a148c"/><path d="M266.293 418.88c-3.34 22.796 3.316 45.512 31.432 68.054 27.14-19.622 33.92-43.442 33.576-68.73zm-175.132 0c-3.34 22.796 3.315 45.512 31.431 68.054 27.14-19.622 33.92-43.442 33.577-68.73z" fill="#ffd600"/><path d="M276.431 418.667c-2.285 15.6 2.27 31.143 21.51 46.57 18.571-13.429 23.212-29.728 22.976-47.034zm-175.132 0c-2.286 15.6 2.27 31.143 21.509 46.57 18.572-13.429 23.212-29.728 22.976-47.034z" fill="#ffa000"/><circle cx="213.135" cy="187.609" r="50.009" fill="#673ab7"/><circle cx="212.038" cy="188.557" r="36.828" fill="#4a148c"/><clipPath id="d"><circle cx="212.057" cy="186.066" r="37.968"/></clipPath><g clip-path="url(#d)" transform="matrix(.96999 0 0 .96999 6.345 8.075)"><circle cx="212.057" cy="189.526" r="37.968" fill="#bbe8ff"/><clipPath id="e"><circle cx="212.057" cy="189.526" r="37.968"/></clipPath><g clip-path="url(#e)" fill="#fff"><path d="M242.567 142.957l-6.981-5.186-79.096 106.461 6.981 5.186zm15.94 9.568l-11.413-8.479-79.096 106.461 11.413 8.479z"/></g></g><path d="M299.455 325.213c-19.865 17.36-38.061 62.752-36.543 91.664 20.092 10.244 53.78 9.236 72.954 0 .576-23.079-15.437-73.008-36.411-91.664z" fill="#fff"/><clipPath id="f"><path d="M302.179 326.951c-20.48 17.897-39.239 64.693-37.674 94.5 20.714 10.561 55.444 9.522 75.212 0 .594-23.793-15.915-75.267-37.538-94.5z"/></clipPath><g clip-path="url(#f)" transform="matrix(.96999 0 0 .96999 6.345 8.075)"><path d="M361.113 409.093c-37.539 12.968-76.681 13.678-118.08 0v28.103h118.08z" fill="#ff6d00"/><path d="M301.1 326.022c11.293 27.098 14.856 59.041 14.113 92.605l-.002.069c8.374-.53 16.56-1.675 24.521-3.563-3.366-40.935-3.084-65.778-38.632-89.111z" fill="#cfd8dc"/><path d="M340.961 423.145l-1.229-8.012c-7.864 1.634-15.976 2.894-24.513 3.511l-.007.2a403.654 403.654 0 0 1-.316 9.208c5.747.452 13.852-.769 26.065-4.907z" fill="#cf5c00"/></g><path d="M124.322 325.213c-19.865 17.36-38.06 62.752-36.543 91.664 20.092 10.244 53.78 9.236 72.954 0 .576-23.079-15.437-73.008-36.411-91.664z" fill="#fff"/><clipPath id="g"><path d="M121.627 326.951c-20.48 17.897-39.238 64.693-37.674 94.5 20.714 10.561 55.445 9.522 75.212 0 .594-23.793-15.915-75.267-37.538-94.5z"/></clipPath><g clip-path="url(#g)" transform="matrix(.96999 0 0 .96999 6.345 8.075)"><path d="M180.561 409.093c-37.539 12.968-76.681 13.678-118.08 0v28.103h118.08z" fill="#ff6d00"/><path d="M120.548 326.022c11.293 27.098 14.857 59.041 14.113 92.605l-.001.069c8.373-.53 16.559-1.675 24.521-3.563-3.367-40.935-3.085-65.778-38.633-89.111z" fill="#cfd8dc"/><path d="M160.409 423.145l-1.228-8.012c-7.865 1.634-15.977 2.894-24.513 3.511 0 0-.005.09-.008.2a397.98 397.98 0 0 1-.316 9.208c5.747.452 13.852-.769 26.065-4.907z" fill="#cf5c00"/></g><path d="M160.516 422.94c-5.255 35.869 5.219 71.61 49.458 107.082 42.702-30.877 53.371-68.357 52.83-108.147z" fill="#ffd600"/><path d="M170.367 416.506c-4.34 29.622 4.31 59.14 40.845 88.435 35.267-25.5 44.078-56.454 43.631-89.315z" fill="#ffa000"/><path d="M211.305 281.816c-39.73 34.72-63.564 94.111-60.529 151.935 40.185 20.49 79.308 18.473 117.657 0 1.152-46.156-15.179-114.624-57.128-151.935z" fill="#fff"/><clipPath id="h"><path d="M211.302 282.211c-40.96 35.794-65.531 97.023-62.402 156.636 41.428 21.124 81.762 19.045 121.297 0 1.188-47.584-15.648-118.171-58.895-156.636z"/></clipPath><g clip-path="url(#h)" transform="matrix(.96999 0 0 .96999 6.345 8.075)"><path d="M302.489 408.158c-56.092 32.314-114.504 38.183-176.168 3.236v51.636h176.168z" fill="#ff6d00"/><path d="M210.528 280.398c13.631 47.559 20.739 100.096 22.972 152.994 0 .007.01.016.01.016s21.875-3.04 36.746-9.563c-6.432-80.497-15.916-115.629-59.728-143.447z" fill="#cfd8dc"/><path d="M278.206 420.787c-14.4 5.485-28.842 10.135-44.701 12.621 0 0 .444 12.161.573 18.187h47.787c-.841-10.532-3.659-30.808-3.659-30.808z" fill="#cf5c00"/></g></svg>
