<svg viewBox="0 0 1147 442" width="1146" height="440" xmlns="http://www.w3.org/2000/svg" fill-rule="evenodd" clip-rule="evenodd" stroke-linejoin="round" stroke-miterlimit="1.414"><circle cx="430.745" cy="3087.03" r="6.975" fill="#fff" transform="matrix(.47699 0 0 .47699 938.06 -1428.496)"/><circle cx="430.745" cy="3087.03" r="6.975" fill="#fff" transform="translate(-107.902 -2805.783)"/><circle cx="430.745" cy="3087.03" r="6.975" fill="#fff" transform="translate(527.935 -2863.053)"/><circle cx="430.745" cy="3087.03" r="6.975" fill="#fff" transform="matrix(.61461 0 0 .61461 -70 -1479.79)"/><circle cx="430.745" cy="3087.03" r="6.975" fill="#fff" transform="matrix(.47699 0 0 .47699 -101.942 -1248.495)"/><circle cx="430.745" cy="3087.03" r="6.975" fill="#fff" transform="matrix(.47699 0 0 .47699 701.746 -1034.768)"/><circle cx="430.745" cy="3087.03" r="6.975" fill="#fff" transform="matrix(.47699 0 0 .47699 -201.942 -1378.5)"/><circle cx="430.745" cy="3087.03" r="6.975" fill="#fff" transform="matrix(.47699 0 0 .47699 -81.942 -1468.501)"/><circle cx="430.745" cy="3087.03" r="6.975" fill="#fff" transform="matrix(.47699 0 0 .47699 601.746 -1164.772)"/></svg>
